<svg id="Group_175474" data-name="Group 175474" xmlns="http://www.w3.org/2000/svg" xmlns:xlink="http://www.w3.org/1999/xlink" width="131" height="117.063" viewBox="0 0 131 117.063">
  <defs>
    <clipPath id="clip-path">
      <rect id="Rectangle_162369" data-name="Rectangle 162369" width="131" height="117.063" fill="none"/>
    </clipPath>
  </defs>
  <g id="Group_175473" data-name="Group 175473" clip-path="url(#clip-path)">
    <path id="Path_142052" data-name="Path 142052" d="M11.5,107.563v-68a4,4,0,0,1,4-4h100a4,4,0,0,1,4,4v68Z" fill="#fff"/>
    <path id="Path_142053" data-name="Path 142053" d="M11.5,107.563v-68a4,4,0,0,1,4-4h100a4,4,0,0,1,4,4v68Z" fill="none" stroke="#194591" stroke-linecap="round" stroke-linejoin="round" stroke-width="3"/>
    <rect id="Rectangle_162365" data-name="Rectangle 162365" width="128" height="8" transform="translate(1.5 107.563)" fill="#fff"/>
    <rect id="Rectangle_162366" data-name="Rectangle 162366" width="128" height="8" transform="translate(1.5 107.563)" fill="none" stroke="#194591" stroke-linecap="round" stroke-linejoin="round" stroke-width="3"/>
    <line id="Line_611" data-name="Line 611" y2="16" transform="translate(74.118 74.217)" fill="none" stroke="#00ccdb" stroke-linecap="round" stroke-linejoin="round" stroke-width="3"/>
    <line id="Line_612" data-name="Line 612" y2="26" transform="translate(65.501 71.217)" fill="none" stroke="#00ccdb" stroke-linecap="round" stroke-linejoin="round" stroke-width="3"/>
    <line id="Line_613" data-name="Line 613" y2="12" transform="translate(82.808 69.345)" fill="none" stroke="#00ccdb" stroke-linecap="round" stroke-linejoin="round" stroke-width="3"/>
    <line id="Line_614" data-name="Line 614" y2="16" transform="translate(57.155 74.217)" fill="none" stroke="#00ccdb" stroke-linecap="round" stroke-linejoin="round" stroke-width="3"/>
    <line id="Line_615" data-name="Line 615" y2="12" transform="translate(48.883 69.345)" fill="none" stroke="#00ccdb" stroke-linecap="round" stroke-linejoin="round" stroke-width="3"/>
    <path id="Path_142054" data-name="Path 142054" d="M78.5,21.057,65.5,1.5l-13,19.556Z" fill="#fff"/>
    <path id="Path_142055" data-name="Path 142055" d="M78.5,21.057,65.5,1.5l-13,19.556Z" fill="none" stroke="#ff7964" stroke-linecap="round" stroke-linejoin="round" stroke-width="3"/>
    <rect id="Rectangle_162367" data-name="Rectangle 162367" width="26" height="44.77" transform="translate(52.5 21.057)" fill="#fff"/>
    <rect id="Rectangle_162368" data-name="Rectangle 162368" width="26" height="44.77" transform="translate(52.5 21.057)" fill="none" stroke="#ff7964" stroke-linecap="round" stroke-linejoin="round" stroke-width="3"/>
    <path id="Path_142056" data-name="Path 142056" d="M86.5,51.827l-8-6v25l8-3Z" fill="#fff"/>
    <path id="Path_142057" data-name="Path 142057" d="M86.5,51.827l-8-6v25l8-3Z" fill="none" stroke="#ff7964" stroke-linecap="round" stroke-linejoin="round" stroke-width="3"/>
    <path id="Path_142058" data-name="Path 142058" d="M69.5,56.206l-4-5-4,5V70.827h8Z" fill="#fff"/>
    <path id="Path_142059" data-name="Path 142059" d="M69.5,56.206l-4-5-4,5V70.827h8Z" fill="none" stroke="#ff7964" stroke-linecap="round" stroke-linejoin="round" stroke-width="3"/>
    <path id="Path_142060" data-name="Path 142060" d="M52.5,45.827l-8,6v16l8,3Z" fill="#fff"/>
    <path id="Path_142061" data-name="Path 142061" d="M52.5,45.827l-8,6v16l8,3Z" fill="none" stroke="#ff7964" stroke-linecap="round" stroke-linejoin="round" stroke-width="3"/>
    <path id="Path_142062" data-name="Path 142062" d="M65.5,42.557a6.75,6.75,0,1,1,6.75-6.75,6.75,6.75,0,0,1-6.75,6.75" fill="#fff"/>
    <circle id="Ellipse_1140" data-name="Ellipse 1140" cx="6.75" cy="6.75" r="6.75" transform="translate(58.75 29.057)" fill="none" stroke="#194591" stroke-linecap="round" stroke-linejoin="round" stroke-width="3"/>
  </g>
</svg>
