<svg id="Group_27400" data-name="Group 27400" xmlns="http://www.w3.org/2000/svg" xmlns:xlink="http://www.w3.org/1999/xlink" width="124.911" height="131" viewBox="0 0 124.911 131">
  <defs>
    <clipPath id="clip-path">
      <rect id="Rectangle_3699" data-name="Rectangle 3699" width="124.911" height="131" fill="none"/>
    </clipPath>
  </defs>
  <g id="Group_27388" data-name="Group 27388" clip-path="url(#clip-path)">
    <path id="Path_109216" data-name="Path 109216" d="M63.5,129.5h-52a10,10,0,0,1-10-10V11.5a10,10,0,0,1,10-10h52a10,10,0,0,1,10,10v108a10,10,0,0,1-10,10" fill="#fff"/>
    <rect id="Rectangle_3698" data-name="Rectangle 3698" width="72" height="128" rx="10" transform="translate(1.5 1.5)" fill="none" stroke="#194591" stroke-linecap="round" stroke-linejoin="round" stroke-width="3"/>
    <path id="Path_109217" data-name="Path 109217" d="M49.5,9.5h-24a4,4,0,0,1-4-4v-4h32v4a4,4,0,0,1-4,4" fill="#fff"/>
    <path id="Path_109218" data-name="Path 109218" d="M49.5,9.5h-24a4,4,0,0,1-4-4v-4h32v4A4,4,0,0,1,49.5,9.5Z" fill="none" stroke="#194591" stroke-linecap="round" stroke-linejoin="round" stroke-width="3"/>
    <path id="Path_109219" data-name="Path 109219" d="M61.5,49.375v-8H55.039a17.872,17.872,0,0,0-2.313-5.569L57.3,31.233l-5.657-5.657L47.07,30.149a17.862,17.862,0,0,0-5.57-2.312V21.375h-8v6.462a17.862,17.862,0,0,0-5.57,2.312l-4.572-4.573L17.7,31.233l4.573,4.573a17.872,17.872,0,0,0-2.313,5.569H13.5v8h6.461a17.887,17.887,0,0,0,2.313,5.57L17.7,59.517l5.657,5.657L27.931,60.6A17.848,17.848,0,0,0,33.5,62.914v6.461h8V62.914A17.848,17.848,0,0,0,47.069,60.6l4.573,4.573L57.3,59.517l-4.573-4.572a17.887,17.887,0,0,0,2.313-5.57Zm-24,5a9,9,0,1,1,9-9,9,9,0,0,1-9,9" fill="#fff"/>
    <path id="Path_109220" data-name="Path 109220" d="M61.5,49.375v-8H55.039a17.872,17.872,0,0,0-2.313-5.569L57.3,31.233l-5.657-5.657L47.07,30.149a17.862,17.862,0,0,0-5.57-2.312V21.375h-8v6.462a17.862,17.862,0,0,0-5.57,2.312l-4.572-4.573L17.7,31.233l4.573,4.573a17.872,17.872,0,0,0-2.313,5.569H13.5v8h6.461a17.887,17.887,0,0,0,2.313,5.57L17.7,59.517l5.657,5.657L27.931,60.6A17.848,17.848,0,0,0,33.5,62.914v6.461h8V62.914A17.848,17.848,0,0,0,47.069,60.6l4.573,4.573L57.3,59.517l-4.573-4.572a17.887,17.887,0,0,0,2.313-5.57Zm-24,5a9,9,0,1,1,9-9A9,9,0,0,1,37.5,54.375Z" fill="none" stroke="#ff7964" stroke-linecap="round" stroke-linejoin="round" stroke-width="3"/>
    <path id="Path_109221" data-name="Path 109221" d="M102.411,79.813v-7H96.757a15.641,15.641,0,0,0-2.023-4.873l4-4-4.95-4.95-4,4a15.641,15.641,0,0,0-4.873-2.023V55.313h-7v5.654a15.64,15.64,0,0,0-4.873,2.023l-4-4-4.95,4.95,4,4a15.64,15.64,0,0,0-2.023,4.873H60.411v7h5.654a15.64,15.64,0,0,0,2.023,4.873l-4,4,4.95,4.949,4-4a15.64,15.64,0,0,0,4.873,2.023v5.654h7V91.659a15.64,15.64,0,0,0,4.873-2.023l4,4,4.95-4.949-4-4a15.641,15.641,0,0,0,2.023-4.873Zm-21,4.375a7.875,7.875,0,1,1,7.875-7.875,7.875,7.875,0,0,1-7.875,7.875" fill="#fff"/>
    <path id="Path_109222" data-name="Path 109222" d="M102.411,79.813v-7H96.757a15.641,15.641,0,0,0-2.023-4.873l4-4-4.95-4.95-4,4a15.641,15.641,0,0,0-4.873-2.023V55.313h-7v5.654a15.64,15.64,0,0,0-4.873,2.023l-4-4-4.95,4.95,4,4a15.64,15.64,0,0,0-2.023,4.873H60.411v7h5.654a15.64,15.64,0,0,0,2.023,4.873l-4,4,4.95,4.949,4-4a15.64,15.64,0,0,0,4.873,2.023v5.654h7V91.659a15.64,15.64,0,0,0,4.873-2.023l4,4,4.95-4.949-4-4a15.641,15.641,0,0,0,2.023-4.873Zm-21,4.375a7.875,7.875,0,1,1,7.875-7.875A7.875,7.875,0,0,1,81.411,84.188Z" fill="none" stroke="#00ccdb" stroke-linecap="round" stroke-linejoin="round" stroke-width="3"/>
    <path id="Path_109223" data-name="Path 109223" d="M123.411,41.313v-6h-4.846a13.4,13.4,0,0,0-1.734-4.177l3.429-3.43-4.242-4.242-3.43,3.429a13.4,13.4,0,0,0-4.177-1.734V20.313h-6v4.846a13.4,13.4,0,0,0-4.177,1.734L94.8,23.464l-4.242,4.242,3.429,3.43a13.4,13.4,0,0,0-1.734,4.177H87.411v6h4.846a13.4,13.4,0,0,0,1.734,4.177l-3.429,3.43L94.8,53.162l3.43-3.429a13.4,13.4,0,0,0,4.177,1.734v4.846h6V51.467a13.4,13.4,0,0,0,4.177-1.734l3.43,3.429,4.242-4.242-3.429-3.43a13.4,13.4,0,0,0,1.734-4.177Zm-18,3.75a6.75,6.75,0,1,1,6.75-6.75,6.75,6.75,0,0,1-6.75,6.75" fill="#fff"/>
    <path id="Path_109224" data-name="Path 109224" d="M123.411,41.313v-6h-4.846a13.4,13.4,0,0,0-1.734-4.177l3.429-3.43-4.242-4.242-3.43,3.429a13.4,13.4,0,0,0-4.177-1.734V20.313h-6v4.846a13.4,13.4,0,0,0-4.177,1.734L94.8,23.464l-4.242,4.242,3.429,3.43a13.4,13.4,0,0,0-1.734,4.177H87.411v6h4.846a13.4,13.4,0,0,0,1.734,4.177l-3.429,3.43L94.8,53.162l3.43-3.429a13.4,13.4,0,0,0,4.177,1.734v4.846h6V51.467a13.4,13.4,0,0,0,4.177-1.734l3.43,3.429,4.242-4.242-3.429-3.43a13.4,13.4,0,0,0,1.734-4.177Zm-18,3.75a6.75,6.75,0,1,1,6.75-6.75A6.75,6.75,0,0,1,105.411,45.063Z" fill="none" stroke="#ff7964" stroke-linecap="round" stroke-linejoin="round" stroke-width="3"/>
  </g>
</svg>
